<?xml version="1.0" encoding="iso-8859-1"?>
<!-- Generator: Adobe Illustrator 19.0.0, SVG Export Plug-In . SVG Version: 6.00 Build 0)  -->
<svg version="1.1" id="Layer_1" xmlns="http://www.w3.org/2000/svg" xmlns:xlink="http://www.w3.org/1999/xlink" x="0px" y="0px"
	 viewBox="0 0 406.48 406.48" style="enable-background:new 0 0 406.48 406.48;" xml:space="preserve">
<g>
	<g>
		<path d="M100.672,287.798c-6.25,0-11.334-5.084-11.334-11.334c0-6.25,5.085-11.334,11.334-11.334h2.868
			c4.668,0,8.466,3.798,8.466,8.466c0,4.142,3.358,7.5,7.5,7.5c4.142,0,7.5-3.358,7.5-7.5c0-12.939-10.527-23.466-23.466-23.466
			h-2.868c-14.521,0-26.334,11.813-26.334,26.334s11.813,26.334,26.334,26.334c6.25,0,11.334,5.084,11.334,11.334
			c0,6.25-5.084,11.333-11.334,11.333h-2.868c-4.668,0-8.466-3.797-8.466-8.465c0-4.142-3.358-7.5-7.5-7.5
			c-4.142,0-7.5,3.358-7.5,7.5c0,12.939,10.527,23.465,23.466,23.465h2.868c14.521,0,26.334-11.813,26.334-26.333
			S115.193,287.798,100.672,287.798z"/>
	</g>
</g>
<g>
	<g>
		<path d="M260.22,314.988c-4.142,0-7.5,3.358-7.5,7.5v2.979h-22.667v-67.836c0-4.142-3.358-7.5-7.5-7.5c-4.142,0-7.5,3.358-7.5,7.5
			v75.335c0,4.142,3.358,7.5,7.5,7.5h37.667c4.142,0,7.5-3.358,7.5-7.5v-10.479C267.72,318.345,264.362,314.988,260.22,314.988z"/>
	</g>
</g>
<g>
	<g>
		<path d="M324.642,277.684c4.142,0,7.5-3.358,7.5-7.5v-12.554c0-4.142-3.358-7.5-7.5-7.5h-37.668c-4.142,0-7.5,3.358-7.5,7.5
			v75.335c0,4.142,3.358,7.5,7.5,7.5h37.668c4.142,0,7.5-3.358,7.5-7.5v-10.479c0-4.142-3.358-7.5-7.5-7.5
			c-4.142,0-7.5,3.358-7.5,7.5v2.979h-22.668v-22.667h13.749c4.142,0,7.5-3.358,7.5-7.5c0-4.142-3.358-7.5-7.5-7.5h-13.749v-22.668
			h22.668v5.054C317.142,274.327,320.5,277.684,324.642,277.684z"/>
	</g>
</g>
<g>
	<g>
		<path d="M169.03,250.618c-14.386,0-26.09,11.704-26.09,26.09v55.771c0,4.142,3.358,7.5,7.5,7.5c4.142,0,7.5-3.358,7.5-7.5v-17.607
			h22.18v17.607c0,4.142,3.358,7.5,7.5,7.5c4.142,0,7.5-3.358,7.5-7.5v-55.771C195.12,262.322,183.416,250.618,169.03,250.618z
			 M180.12,299.871h-22.18v-23.163c0-6.115,4.975-11.09,11.09-11.09s11.09,4.975,11.09,11.09V299.871z"/>
	</g>
</g>
<g>
	<g>
		<path d="M360.811,194.053h-33.864L229.368,65.978c4.985-5.933,7.995-13.579,7.995-21.917c0-18.816-15.308-34.124-34.124-34.124
			c-18.816,0-34.124,15.308-34.124,34.124c0,8.34,3.012,15.987,7.999,21.921L79.531,194.053H45.669
			C20.487,194.053,0,214.54,0,239.722v111.153c0,25.182,20.487,45.669,45.669,45.669h315.142c25.182,0,45.669-20.487,45.669-45.669
			V239.722C406.48,214.54,385.993,194.053,360.811,194.053z M203.24,24.938c10.545,0,19.124,8.579,19.124,19.124
			c0,10.545-8.579,19.124-19.124,19.124c-10.545,0-19.124-8.579-19.124-19.124C184.116,33.517,192.695,24.938,203.24,24.938z
			 M189.042,75.079c4.327,1.989,9.133,3.106,14.198,3.106c5.067,0,9.875-1.119,14.203-3.108l90.646,118.977h-209.7L189.042,75.079z
			 M391.48,350.874c0,16.911-13.758,30.669-30.669,30.669H45.669C28.758,381.543,15,367.785,15,350.874V239.722
			c0-16.911,13.758-30.669,30.669-30.669h315.142c16.911,0,30.669,13.758,30.669,30.669V350.874z"/>
	</g>
</g>
<g>
</g>
<g>
</g>
<g>
</g>
<g>
</g>
<g>
</g>
<g>
</g>
<g>
</g>
<g>
</g>
<g>
</g>
<g>
</g>
<g>
</g>
<g>
</g>
<g>
</g>
<g>
</g>
<g>
</g>
</svg>
